<?xml version="1.0" standalone="no"?>
<!DOCTYPE svg PUBLIC "-//W3C//DTD SVG 20010904//EN"
 "http://www.w3.org/TR/2001/REC-SVG-20010904/DTD/svg10.dtd">
<svg version="1.0" xmlns="http://www.w3.org/2000/svg"
 width="400.000000pt" height="400.000000pt" viewBox="0 0 400.000000 400.000000"
 preserveAspectRatio="xMidYMid meet">
<metadata>
Created by potrace 1.11, written by Peter Selinger 2001-2013
</metadata>
<g transform="translate(0.000000,400.000000) scale(0.100000,-0.100000)"
fill="#000000" stroke="none">
<path d="M0 2000 l0 -2000 2000 0 2000 0 0 2000 0 2000 -2000 0 -2000 0 0
-2000z m2335 1312 c383 -84 652 -286 777 -585 111 -262 84 -664 -58 -899 -50
-82 -155 -191 -254 -264 -53 -39 -79 -64 -77 -75 2 -8 104 -193 226 -409 122
-217 218 -397 214 -401 -10 -8 -861 -175 -866 -169 -2 3 -69 187 -149 410
l-146 405 -120 3 -121 3 -5 -43 c-3 -24 -10 -171 -16 -328 -5 -157 -13 -320
-16 -362 l-6 -78 -420 0 -419 0 5 68 c3 37 8 231 11 432 3 201 10 543 15 760
6 217 15 611 20 875 6 264 13 489 16 501 10 40 323 124 589 158 174 23 195 24
465 21 199 -3 262 -7 335 -23z"/>
<path d="M1833 2663 c-19 -4 -23 -11 -23 -41 0 -20 -7 -174 -15 -342 -8 -168
-15 -316 -15 -329 0 -24 1 -24 78 -17 206 17 358 99 420 227 64 132 26 328
-83 428 -63 58 -136 81 -248 80 -51 -1 -102 -4 -114 -6z"/>
</g>
</svg>
